# xmcd CD database file
#
# Track frame offsets:
#	150
#	16790
#	37611
#	53647
#	69456
#	92874
#	105030
#	117545
#	138275
#	154856
#	165544
#	191878
#
# Disc length: 2566 seconds
#
# Revision: 0
# Processed by: cddbd v1.5.1PL0 Copyright (c) Steve Scherf et al.
# Submitted via: CDex 1.51
#
DISCID=8e0a040c
DTITLE=Aretha Franklin - Unforgettable. A tribute to Dinah Washington
DYEAR=1995
DGENRE=Jazz
TTITLE0=Unforgettable
TTITLE1=Cold, Cold Heart 
TTITLE2=What a Diff'rence a Day Made 
TTITLE3=Drinking Again
TTITLE4=Nobody Knows the Way I Feel This Morning
TTITLE5=Evil Gal Blues
TTITLE6=Don't Say You're Sorry Again
TTITLE7=This Bitter Earth
TTITLE8=If I Should Lose You
TTITLE9=Soulville
TTITLE10=Lee Cross [#] 
TTITLE11=Data Track
EXTD=YEAR: 1995
EXTT0=
EXTT1=
EXTT2=
EXTT3=
EXTT4=
EXTT5=
EXTT6=
EXTT7=
EXTT8=
EXTT9=
EXTT10=
EXTT11=
PLAYORDER=
